<?xml version="1.0" encoding="UTF-8"?>
<svg xmlns="http://www.w3.org/2000/svg" xmlns:xlink="http://www.w3.org/1999/xlink" baseProfile="tiny" version="1.2" viewBox="0 0 840 285">
  <defs>
    <linearGradient id="linear-gradient" x1="33.3" y1="212" x2="111.4" y2="36.6" gradientUnits="userSpaceOnUse">
      <stop offset="0" stop-color="#f5e64f"/>
      <stop offset=".2" stop-color="#d1e76c"/>
      <stop offset=".6" stop-color="#76eab5"/>
      <stop offset="1" stop-color="#1cedff"/>
    </linearGradient>
    <linearGradient id="linear-gradient-2" x1="95.9" y1="247.2" x2="173.8" y2="72.3" xlink:href="#linear-gradient"/>
  </defs>
  <!-- Generator: Adobe Illustrator 28.7.1, SVG Export Plug-In . SVG Version: 1.2.0 Build 142)  -->
  <g>
    <g id="Layer_1">
      <g>
        <path d="M242.4,184.5v-17.7h62.4c6.4,0,10-3.3,10-8.5s-3.6-8.8-10-8.8h-37.4c-16.3,0-26.3-9.8-26.3-23.8s9.3-23.9,26.5-23.9h59.8v17.7h-59.8c-5,0-8.1,2.8-8.1,8s3.2,8,8.1,8h37.2c17.4,0,26.7,7.7,26.7,24.2s-8.8,24.8-26.7,24.8h-62.4Z" fill="#fff"/>
        <path d="M381.1,184.5c-23.5,0-40.8-18.2-40.8-42.2s17.3-40.5,40.8-40.5h20.5c24.3,0,41.2,16.5,41.2,40.5s-17.3,42.2-41.2,42.2h-20.5ZM401.6,166.7c13.8,0,23.4-9.9,23.4-23.5s-9.7-23.7-23.4-23.7h-20.5c-13.3,0-23.1,9.9-23.1,23.7s9.7,23.5,23.1,23.5h20.5Z" fill="#fff"/>
        <path d="M455.4,184.5v-82.7h17.7v64.9h53.5v17.7h-71.2Z" fill="#fff"/>
        <path d="M536.1,184.5v-82.7h48.7c23.8,0,40.9,16.5,40.9,40.5s-17.2,42.2-40.9,42.2h-48.7ZM584.8,166.7c13.4,0,23.2-9.9,23.2-23.5s-9.8-23.7-23.2-23.7h-31.1v47.2h31.1Z" fill="#fff"/>
        <path d="M638.3,184.5v-82.7h75.1v17.7h-57.4v47.2h57.6v17.7h-75.2ZM666.3,149.4v-14h43.9v14h-43.9Z" fill="#fff"/>
        <path d="M807,184.5l-31.3-31.7-30.8,31.7h-23l43.2-43-40-39.7h24.5l28,28.4,27.6-28.4h23l-39.9,39.7,43.6,43h-24.8Z" fill="#fff"/>
      </g>
      <g>
        <path d="M106.3,42c1.1,0,2.2.2,3.3.3,21.8,1.7,40.9,9.7,57.5,23.9.6.5,1.1,1,1.7,1.5-17.4-14.4-37.4-20.6-59.8-17.5-22.5,3.1-40.2,14.4-52.7,33.2-20.4,30.6-14.9,70.2,9,94.3,8.6-8.5,17.2-16.9,25.8-25.4-7.8-8.4-11.1-18.3-9.2-29.7,1.5-8.9,6.1-16.1,13.5-21.4,14.5-10.5,33.5-7.3,44.1,4.2-8.6,8.4-17.1,16.9-25.7,25.4,7.4,7.9,10.8,17.1,9.6,27.9-.9,8.3-4.6,15.3-10.8,20.9-6.7,6-14.6,8.9-23.6,8.7-9-.3-16.7-3.8-23.1-10.1-11.2,11.1-22.4,22.1-33.7,33.3-1.9-2.1-3.9-4.3-5.8-6.5-10.6-12.7-17.7-27.2-21.1-43.4-1.1-5.1-1.7-10.2-1.9-15.4,0-.3,0-.6-.1-.8,0-2.6,0-5.3,0-7.9,0-.3.1-.6.1-.8.2-5.4.9-10.7,2-15.9,5.2-23.7,17.4-43.1,36.5-57.9,15.7-12.2,33.5-18.9,53.3-20.4,1.1,0,2.3-.2,3.4-.3,2.6,0,5.3,0,7.9,0Z" fill="url(#linear-gradient)"/>
        <path d="M173.5,72.2c36.4,36.9,38.9,99.7-1.5,139.6-39.7,39.2-97.9,35-131.3,7.1,19,13.7,39.9,18.3,62.8,13.2,17.5-4,31.7-13.3,42.8-27.5,22.3-28.7,21.3-71.5-6.2-99.3,11.2-11,22.3-22.1,33.5-33.1Z" fill="url(#linear-gradient-2)"/>
      </g>
    </g>
  </g>
</svg>